<?xml version="1.0" encoding="utf-8"?>
<!-- Generator: Adobe Illustrator 24.0.1, SVG Export Plug-In . SVG Version: 6.00 Build 0)  -->
<svg version="1.1" id="Layer_1" xmlns="http://www.w3.org/2000/svg" xmlns:xlink="http://www.w3.org/1999/xlink" x="0px" y="0px"
   viewBox="0 0 381.41 148.98" style="enable-background:new 0 0 381.41 148.98;" xml:space="preserve">
<style type="text/css">
  .st0{fill:#1D1D1B;}
  .st1{fill:#DE1B23;}
</style>
<g>
  <g>
    <path class="st0" d="M135.28,25.26L92.4,51.03l-33-19.77l-2.64,4.32l31.19,18.68L49.74,77.21L9.38,53.05l29.48-17.72l-1.77-2.56
      L3.51,52.96l0.04,53.91l45.55,27.29l42.88-25.77l42.89,25.71l46-27.64l-0.04-53.92L135.28,25.26z M8.3,58.25l36.55,21.9
      L8.39,102.07L8.3,58.25z M46.68,127.13L9.2,104.67l37.46-22.51L46.68,127.13z M137.68,32.28l37.49,22.46l-37.46,22.51
      L137.68,32.28z M132.88,32.29l0.03,43.02L97.05,53.82L132.88,32.29z M51.49,127.13l-0.03-43.02l35.85,21.49L51.49,127.13z
       M52.32,78.76L90.53,55.8l41.51,24.85l-38.21,22.96L52.32,78.76z M136.77,129.33l-40.36-24.17l38.21-22.96l40.36,24.17
      L136.77,129.33z M139.5,79.26l36.47-21.91l0.08,43.81L139.5,79.26z"/>
    <path class="st1" d="M54.52,27.2c0,3.65-2.95,6.61-6.6,6.61c-3.65,0-6.61-2.95-6.61-6.6c0-3.65,2.96-6.61,6.6-6.61
      C51.56,20.59,54.52,23.55,54.52,27.2"/>
  </g>
  <g>
    <g>
      <path class="st0" d="M328.05,88.08c0,4.31-2.07,7.54-6.21,9.69c-3.23,1.68-7.22,2.52-11.98,2.52l-18.09,0.01
        c-5.08,0-9.32-0.76-12.74-2.29c-4.65-2.05-6.98-5.31-6.98-9.76l-0.01-21.9c0-4.28,2.37-7.46,7.1-9.55
        c3.52-1.58,7.74-2.37,12.67-2.38l11.23-0.01l0.01,8.65l-13.02,0.01c-5.24,0-7.86,1.09-7.86,3.27l0.01,21.86
        c0,2.24,3.23,3.37,9.69,3.37l17.99-0.01c1.36,0,2.92-0.26,4.66-0.76c2.28-0.64,3.41-1.46,3.41-2.45l-0.01-15.4l10.12-0.01
        L328.05,88.08z"/>
      <path class="st1" d="M314.46,78.57c0,3.08-2.5,5.59-5.59,5.59c-3.08,0-5.58-2.5-5.58-5.58c0-3.08,2.5-5.58,5.58-5.59
        C311.95,72.99,314.46,75.49,314.46,78.57"/>
    </g>
    <path class="st0" d="M248.09,54.47l-39.52,0.03l0.03,45.87l39.52-0.03c12.66-0.01,19.08-4.29,19.08-12.73l-0.01-20.31
      C267.18,58.78,260.75,54.47,248.09,54.47z M257.33,67.31l0.01,20.31c0,1.16,0,4.7-9.24,4.7l-29.68,0.02l-0.02-29.83l29.68-0.02
      C257.33,62.49,257.33,66.12,257.33,67.31z"/>
    <polygon points="377.9,54.39 327.54,54.42 327.55,64.55 347.66,64.53 347.68,100.27 357.81,100.27 357.79,64.53 377.9,64.51    "/>
  </g>
</g>
</svg>
